<svg height="272" viewBox="0 0 425 272" width="425" xmlns="http://www.w3.org/2000/svg"><g fill="none" fill-rule="evenodd"><path d="m386.731012.08976427h-348.691265c-1.452506 0-2.9075783 0-4.3575181.00769409-1.2241084.01025877-2.4456506.02308224-3.669759.05642325-2.6663494.07181142-5.3557952.22825773-7.9887832.70272604-2.6740481.47959769-5.1633253 1.26439392-7.591012 2.50057622-2.3891928 1.21310005-4.57308434 2.80064536-6.46955422 4.6933892-1.89390361 1.89530854-3.48242168 4.07529803-4.69626506 6.46559243-1.23693976 2.4262001-2.02221687 4.9139529-2.49954217 7.5889283-.4773253 2.6339402-.63386747 5.3191744-.70572289 7.9813263-.03336144 1.2233588-.04875903 2.444153-.05645783 3.6649471-.0076988 1.4516166-.00513253 2.9032331-.00513253 4.3574144v195.7322824c0 1.454182-.00256627 2.903234.00513253 4.357415.0076988 1.220794.02309639 2.444153.05645783 3.664947.07185542 2.659587.22839759 5.347386.70572289 7.978762.4773253 2.674975 1.26260241 5.162728 2.49954217 7.591492 1.21384338 2.38773 2.80236145 4.570284 4.69626506 6.463028 1.89646988 1.895309 4.08036142 3.482854 6.46955422 4.693389 2.4276867 1.238747 4.9169639 2.023544 7.591012 2.505706 2.632988.469339 5.3224338.62835 7.9887832.700161 1.2241084.028212 2.4456506.046165 3.669759.051294 1.4499398.010259 2.9050121.010259 4.3575181.010259h348.691265c1.44994 0 2.905012 0 4.354952-.010259 1.221542-.005129 2.443084-.023082 3.672325-.051294 2.661217-.071811 5.350663-.230822 7.988783-.700161 2.671482-.482162 5.160759-1.266959 7.591012-2.505706 2.389193-1.210535 4.567952-2.79808 6.466988-4.693389 1.891338-1.892744 3.479856-4.075298 4.696265-6.463028 1.239506-2.428764 2.024783-4.916517 2.499543-7.591492.477325-2.631376.631301-5.319175.703156-7.978762.033362-1.220794.048759-2.444153.056458-3.664947.010265-1.454181.010265-2.903233.010265-4.357415v-195.7322824c0-1.4541813 0-2.9057978-.010265-4.3574144-.007699-1.2207941-.023096-2.4415883-.056458-3.6649471-.071855-2.6621519-.225831-5.3473861-.703156-7.9813263-.47476-2.6749754-1.260037-5.1627282-2.499543-7.5889283-1.216409-2.3902944-2.804927-4.57028389-4.696265-6.46559243-1.899036-1.89274384-4.077795-3.48028915-6.466988-4.6933892-2.430253-1.2361823-4.91953-2.02097853-7.591012-2.50057622-2.63812-.47446831-5.327566-.63091462-7.988783-.70272604-1.229241-.03334101-2.450783-.04616448-3.672325-.05642325-1.44994-.00769409-2.905012-.00769409-4.354952-.00769409" fill="#3c4043"/><path d="m386.731012 9.14826192 4.290795.00769408c1.159952.00769408 2.32247.02051755 3.490121.05385856 2.032482.05385857 4.411409.16414039 6.628662.56166789 1.924699.34623365 3.541446.87456055 5.09147 1.66192145 1.53206.7771021 2.933241 1.7978502 4.15735 3.0186443 1.229241 1.2310529 2.250614 2.6339403 3.038457 4.1804505.785278 1.5388161 1.308796 3.1443143 1.655241 5.0832226.395205 2.192813.505555 4.5754133.559446 6.6194741.033362 1.1515474.048759 2.3056595.053892 3.4879832.010265 1.4285343.010265 2.854504.010265 4.285603v195.7322824c0 1.431099 0 2.857069-.010265 4.313815-.005133 1.154112-.02053 2.308224-.053892 3.464901-.053891 2.038931-.164241 4.421532-.564578 6.637427-.341313 1.913261-.864831 3.518759-1.655241 5.06527-.785277 1.543945-1.804084 2.944268-3.028193 4.167627-1.231807 1.231053-2.627855 2.246671-4.177879 3.031468-1.539759.784796-3.151374 1.313123-5.058109 1.654227-2.263446.402657-4.739891.515503-6.605566.564232-1.172783.028212-2.340434.0436-3.53888.04873-1.424277.010258-2.856253.010258-4.283096.010258h-348.691265c-.0179639 0-.0359277 0-.0564578 0-1.4088796 0-2.8228916 0-4.2574338-.010258-1.1702168-.00513-2.3378674-.020518-3.4670241-.046165-1.9093012-.051294-4.3883132-.16414-6.6312289-.564232-1.9246988-.343669-3.5363132-.871996-5.0966024-1.667051-1.5346265-.777102-2.9306747-1.792721-4.1624819-3.026339-1.2215422-1.218229-2.2377832-2.615987-3.0230603-4.162497-.7878433-1.543946-1.3139277-3.154573-1.66037346-5.090917-.39777109-2.213331-.50812048-4.583107-.56457832-6.61178-.03079518-1.159241-.0436265-2.321048-.0513253-3.472595l-.00513253-3.405913v-197.5301332l.00513253-3.3982189c.0076988-1.1618062.02053012-2.3210477.0513253-3.4802892.05645784-2.0312373.16680723-4.4035788.56971085-6.6348622.34131323-1.9158261.86739763-3.5290184 1.65780723-5.080658.7801446-1.5336867 1.7989518-2.9340094 3.0256265-4.1599329 1.2241084-1.2259235 2.6278554-2.2415422 4.1701807-3.0263384 1.5423253-.7873609 3.1590723-1.3131231 5.0837711-1.65935675 2.217253-.3975275 4.5961807-.50780932 6.6337952-.56166789 1.1599518-.03334101 2.3224699-.04616448 3.4747229-.05385856l4.3036265-.00769408z" fill="#fffffe"/><g fill="#3c4043" transform="translate(192.32894 84.60593)"><path d="m12.1771332 57.6434717v38.733973h-12.10196571v-95.61496492h32.09651791c7.7422514-.15249595 15.2590003 2.82117521 20.746227 8.31102965 10.9744534 10.36972507 11.6509608 27.83051217 1.3530148 39.03896497-.4510049.4574879-.9020099.9149757-1.3530148 1.3724636-5.6375617 5.4136065-12.5529707 8.1585337-20.746227 8.1585337zm0-45.1388032v33.3966145h20.2952221c4.5100494.152496 8.8697637-1.6774555 11.9516308-4.9561186 6.3140691-6.6335741 6.1637341-17.3082911-.3758374-23.7131213-3.0818671-3.0499191-7.216079-4.7273746-11.5757934-4.7273746z" fill-rule="nonzero"/><path d="m89.5244796 28.8217358c8.9449312 0 16.0106754 2.4399354 21.1972324 7.243558 5.186556 4.8036226 7.742251 11.5134447 7.742251 19.9769704v40.3351805h-11.575793v-9.0735094h-.526173c-5.036222 7.4723019-11.6509606 11.2084528-19.9945519 11.2084528-7.065744 0-13.0791432-2.1349434-17.814695-6.4048301-4.6603843-3.9648949-7.2912464-9.8359893-7.1409114-16.0120755 0-6.7860701 2.5556946-12.1234286 7.5919164-16.1645714 5.0362217-4.0411429 11.8012958-6.0235903 20.2200546-6.0235903 7.2160789 0 13.0791433 1.3724636 17.7395273 3.9648948v-2.8211752c0-4.1936388-1.80402-8.1585337-4.961054-10.9034609-3.2322022-2.8974232-7.3664141-4.4986307-11.650961-4.4986307-6.765074 0-12.1019658 2.8974232-16.0106752 8.6922695l-10.6737835-6.7860701c5.7127292-8.4635256 14.3569905-12.7334124 25.8576163-12.7334124zm-15.6348377 47.5024906c0 3.2024151 1.5033497 6.1760863 3.9838769 8.0060378 2.7060296 2.1349433 6.0133991 3.278663 9.3959361 3.202415 5.1113893 0 9.9972761-2.0586954 13.6053151-5.7185983 3.983877-3.812399 6.0134-8.3110297 6.0134-13.4958922-3.758375-3.0499192-9.0200991-4.5748787-15.7851731-4.4986307-4.8858868 0-9.0200987 1.2199676-12.3274682 3.5836549-3.2322021 2.3636874-4.8858868 5.3373585-4.8858868 8.9210135z" fill-rule="nonzero"/><path d="m184.912023 30.9566792-40.440109 94.1662538h-12.477803l15.033498-32.9391271-26.534124-61.2271267h13.154311l19.16771 46.9687548h.225502l18.716705-46.9687548z"/></g><g transform="translate(48.759036 76.981132)"><path d="m106.813002 56.8809919c0-3.7361509-.30067-7.4723019-.90201-11.1322048h-51.0387249v21.12069h29.2401533c-1.2026798 6.7860701-5.1113893 12.8859083-10.8241185 16.6983073v13.7246361h17.4388575c10.2227786-9.5309973 16.0858426-23.6368733 16.0858426-40.4114286z" fill="#4285f4"/><path d="m54.8722671 110.559569c14.5824929 0 26.9099611-4.879871 35.8548923-13.2671485l-17.4388575-13.7246361c-4.8858867 3.354911-11.1247883 5.2611105-18.4160348 5.2611105-14.131488 0-26.0831187-9.6834933-30.3676656-22.6456496h-17.96502994v14.182124c9.17043364 18.5282587 27.88713844 30.1941997 48.33269554 30.1941997z" fill="#34a853"/><path d="m24.5046015 66.1832453c-2.2550247-6.7860701-2.2550247-14.182124 0-21.0444421v-14.105876h-17.96502994c-7.74225139 15.4783396-7.74225139 33.7778545 0 49.2561941z" fill="#fbbc04"/><path d="m54.8722671 22.4931536c7.7422514-.1524959 15.1838328 2.8211752 20.746227 8.2347817l15.4845028-15.7070835c-9.8469411-9.30225342-22.7757492-14.41086797-36.2307298-14.25837202-20.4455571 0-39.1622619 11.74218872-48.33269554 30.27044742l17.96502994 14.182124c4.2845469-13.0384043 16.2361776-22.7218976 30.3676656-22.7218976z" fill="#ea4335"/></g></g></svg>